<svg xmlns="http://www.w3.org/2000/svg" width="13" height="13" viewBox="0 0 13 13"><g><g><g><path fill="#000a36" d="M6.5 9a2.5 2.5 0 1 0 0-5 2.5 2.5 0 0 0 0 5z"/></g><g><path fill="#000a36" d="M10.292 3.25a.542.542 0 1 1 0-1.084.542.542 0 0 1 0 1.084zM6.5 9.75A3.253 3.253 0 0 1 3.25 6.5 3.253 3.253 0 0 1 6.5 3.25 3.253 3.253 0 0 1 9.75 6.5 3.253 3.253 0 0 1 6.5 9.75zM9.208 0H3.79A3.796 3.796 0 0 0 0 3.792V9.21A3.796 3.796 0 0 0 3.792 13H9.21A3.796 3.796 0 0 0 13 9.208V3.79A3.796 3.796 0 0 0 9.208 0z"/></g></g></g></svg>