<svg xmlns="http://www.w3.org/2000/svg" width="84" height="68" viewBox="0 0 84 68"><g><g><path fill="#000a36" d="M54.889 5.13a17.329 17.329 0 0 1 0 24.578l-2.402 2.387c-1.222 1.214-2.217.99-3.124-.009l-9.413-9.34.005-.004-1.38-1.369a5.509 5.509 0 0 1 0-7.808 5.609 5.609 0 0 1 7.867 0 5.513 5.513 0 0 1 .855 6.715c-.37.62-.556.97.047 1.517l3.095 3.072c.328.33.642.35.996-.093a11.442 11.442 0 0 0-1.26-15.955c-4.69-4.108-11.82-3.78-16.106.742a11.44 11.44 0 0 0 .233 16.002l6.73 6.681 5.65 5.609-2.53 2.511c-.91.899-2.38.899-3.29 0L30.127 29.708a17.288 17.288 0 0 1 0-24.578c6.838-6.787 17.923-6.787 24.76 0z"/></g><g><path fill="#000a36" d="M1.552 54.092l-.005-2.724 2.333-.002c.537 0 .959.093 1.266.279.307.186.46.536.46 1.048 0 .51-.151.87-.45 1.078-.3.21-.722.314-1.267.314zm.01 3.948l-.006-2.654 2.462-.004c.986-.002 1.73-.22 2.23-.656C6.75 54.29 7 53.6 7 52.656c0-.931-.257-1.6-.77-2.006-.511-.407-1.252-.61-2.221-.61L0 50.047l.014 7.992z"/></g><g><path fill="#000a36" d="M13.17 51.366c.207-.002.414.021.616.07.178.042.346.12.495.228.14.105.252.245.325.406.082.192.122.4.116.608.007.215-.036.429-.125.625-.079.165-.195.31-.34.42-.147.11-.312.192-.489.241a2.13 2.13 0 0 1-.582.079l-2.75.005-.004-2.676zM17 58.028L14.418 54.9c.549-.127.972-.398 1.269-.81.299-.424.454-.935.442-1.456a3.664 3.664 0 0 0-.138-1.02 2.002 2.002 0 0 0-.469-.825 2.232 2.232 0 0 0-.88-.55c-.367-.133-.822-.199-1.364-.199L9 50.048l.014 7.992h1.43l-.005-2.788 2.65-.004 2.17 2.784z"/></g><g><path fill="#000a36" d="M19.015 58.04L19 50.051l6.863-.011v1.315l-5.34.009.003 1.994 4.755-.008v1.136l-4.755.009.004 2.194 5.47-.01v1.35z"/></g><g><path fill="#000a36" d="M28.586 56.689l-.01-5.319h2.489c1.085-.002 1.911.224 2.478.676.566.452.85 1.128.85 2.028a2.52 2.52 0 0 1-.246 1.147 2.233 2.233 0 0 1-.693.815c-.313.223-.67.387-1.05.485-.433.112-.88.167-1.33.163zm2.594 1.343a6.22 6.22 0 0 0 1.985-.305 4.632 4.632 0 0 0 1.521-.833c.418-.352.75-.782.972-1.262.233-.505.35-1.05.342-1.6a4.371 4.371 0 0 0-.287-1.6 3.299 3.299 0 0 0-.88-1.26 4.159 4.159 0 0 0-1.509-.835c-.61-.198-1.33-.297-2.16-.297L27 50.046l.015 7.994z"/></g><g><path fill="#000a36" d="M38.02 58.04l-.02-8h1.98l.02 7.996z"/></g><g><path fill="#000a36" d="M49.963 57.511a3.04 3.04 0 0 1-.62.593c-.27.196-.564.359-.873.485a5.892 5.892 0 0 1-1.09.328 6.77 6.77 0 0 1-3.273-.175 4.82 4.82 0 0 1-1.617-.874 4.1 4.1 0 0 1-1.086-1.41c-.27-.56-.404-1.202-.404-1.927a4.691 4.691 0 0 1 .335-1.8 3.835 3.835 0 0 1 1.004-1.422A4.69 4.69 0 0 1 44 50.377c.664-.223 1.437-.335 2.32-.337.43-.003.857.036 1.278.119.363.07.718.175 1.061.312.288.114.561.262.815.44.203.139.38.312.525.512l-.985 1.21a2.638 2.638 0 0 0-1.129-.844c-.47-.193-1.047-.288-1.73-.287a4.797 4.797 0 0 0-1.512.22 3.143 3.143 0 0 0-1.108.618 2.613 2.613 0 0 0-.687.953c-.16.39-.239.81-.232 1.232-.006.434.08.865.255 1.262.164.367.407.692.712.953.323.271.697.476 1.099.602.46.146.94.216 1.423.209a4.855 4.855 0 0 0 1.687-.274c.474-.17.885-.48 1.18-.89z"/></g><g><path fill="#000a36" d="M54.238 58.04l-.012-6.668-3.226.005.004-1.324L59 50.04v1.327l-3.226.006.012 6.667z"/></g><g><path fill="#000a36" d="M61.02 58.04l-.02-8h1.98l.02 7.996z"/></g><g><path fill="#000a36" d="M72.381 54.611c.009.432-.077.86-.251 1.255-.165.36-.407.677-.708.928-.32.263-.686.46-1.08.58a4.519 4.519 0 0 1-1.37.201 4.329 4.329 0 0 1-1.328-.196 3.226 3.226 0 0 1-1.081-.576 2.73 2.73 0 0 1-.728-.926 2.862 2.862 0 0 1-.268-1.257 3.12 3.12 0 0 1 .252-1.283c.163-.374.404-.708.707-.976a3.16 3.16 0 0 1 1.08-.622 4.108 4.108 0 0 1 1.357-.22c.465-.005.928.067 1.37.214.397.135.765.347 1.082.626.303.268.546.6.71.975.174.402.262.837.256 1.277zm1.236-1.847a4.304 4.304 0 0 0-1.041-1.445 4.745 4.745 0 0 0-1.593-.945 6.257 6.257 0 0 0-4.057.007 4.66 4.66 0 0 0-1.565.95 4.166 4.166 0 0 0-1.009 1.45 4.698 4.698 0 0 0-.351 1.852 4.115 4.115 0 0 0 1.442 3.212c.466.393 1 .693 1.575.885a5.95 5.95 0 0 0 1.958.31 6.233 6.233 0 0 0 2.021-.318c.58-.191 1.12-.493 1.59-.889a4 4 0 0 0 1.04-1.39A4.338 4.338 0 0 0 74 54.616a4.508 4.508 0 0 0-.382-1.85z"/></g><g><path fill="#000a36" d="M82.563 58.028l-5.099-5.605.01 5.617h-1.46L76 50.048h1.506l5.042 5.82-.011-5.828h1.449L84 58.03z"/></g><g><path fill="#000a36" d="M14 68.04v-5h3.926v.823h-3.055v1.248h2.723v.712H14.87v1.37H18v.843z"/></g><g><path fill="#000a36" d="M25.039 68.04l-1.541-2.015-1.54 2.015H21l1.967-2.567-1.935-2.433h1.017l1.48 1.904 1.463-1.904h.961l-1.923 2.462L26 68.04z"/></g><g><path fill="#000a36" d="M29.885 65.578V63.87h1.336c.307 0 .548.059.723.178.175.119.263.338.263.659 0 .32-.087.546-.26.676-.173.13-.415.195-.726.195zm0 2.461v-1.66h1.406c.563 0 .989-.135 1.277-.407.288-.272.432-.704.432-1.294 0-.582-.147-1-.439-1.255-.291-.255-.715-.383-1.27-.383H29v5z"/></g><g><path fill="#000a36" d="M36 68.04v-5h.904v4.154H40v.842z"/></g><g><path fill="#000a36" d="M47.033 65.586c.004.242-.05.481-.156.701a1.47 1.47 0 0 1-.426.515 1.96 1.96 0 0 1-.65.322 2.922 2.922 0 0 1-.825.11 2.8 2.8 0 0 1-.798-.11 1.993 1.993 0 0 1-.65-.322 1.528 1.528 0 0 1-.437-.515 1.478 1.478 0 0 1-.156-.699 1.627 1.627 0 0 1 .152-.712c.099-.208.245-.393.427-.542.19-.154.411-.27.65-.344a2.85 2.85 0 0 1 1.638 0c.238.074.459.19.65.344.182.15.327.334.425.542.106.223.16.465.156.71zm.967.002a2.348 2.348 0 0 0-.851-1.833 2.909 2.909 0 0 0-.95-.527 4.05 4.05 0 0 0-2.437 0 2.837 2.837 0 0 0-.942.526 2.331 2.331 0 0 0-.607.804 2.444 2.444 0 0 0-.212 1.03c-.016.687.3 1.343.858 1.785.279.219.6.386.944.493a3.83 3.83 0 0 0 1.176.174c.412.004.823-.055 1.215-.174.349-.105.673-.273.955-.493.265-.21.478-.473.624-.77.154-.319.231-.665.227-1.015z"/></g><g><path fill="#000a36" d="M53.601 63.865c.13 0 .258.015.384.045.111.027.216.075.308.143a.648.648 0 0 1 .203.252c.053.12.078.25.075.38a.868.868 0 0 1-.079.389.723.723 0 0 1-.212.26.934.934 0 0 1-.306.152c-.118.032-.24.049-.363.048h-1.716v-1.663zM56 68.04l-1.611-1.96c.318-.061.601-.241.794-.504.189-.265.286-.585.28-.91a2.275 2.275 0 0 0-.087-.638 1.244 1.244 0 0 0-.293-.516 1.407 1.407 0 0 0-.55-.346 2.52 2.52 0 0 0-.854-.125H51v4.999h.892v-1.743h1.663l1.357 1.743z"/></g><g><path fill="#000a36" d="M58 68.04v-5h3.926v.823h-3.055v1.248h2.722v.712h-2.722v1.37H62v.843z"/></g><g><path fill="#000a36" d="M67.603 63.865c.13 0 .26.015.386.045a.877.877 0 0 1 .309.143.648.648 0 0 1 .203.252c.053.12.079.25.076.38a.866.866 0 0 1-.076.389.723.723 0 0 1-.213.26.939.939 0 0 1-.307.152c-.118.032-.241.049-.364.048h-1.722v-1.663zM70 68.04l-1.611-1.96c.318-.061.601-.241.794-.504.189-.265.287-.585.28-.91a2.275 2.275 0 0 0-.087-.638 1.235 1.235 0 0 0-.292-.516 1.407 1.407 0 0 0-.55-.346 2.52 2.52 0 0 0-.855-.125H65v4.999h.895v-1.743h1.66l1.356 1.743z"/></g></g></svg>