<svg xmlns="http://www.w3.org/2000/svg" width="203" height="44" viewBox="0 0 203 44"><g><g><g><path fill="#000a36" d="M30.735 6.137c7.02 7.14 7.02 18.677 0 25.816l-2.478 2.508c-1.259 1.275-2.283 1.04-3.219-.01l-9.696-9.81v-.005l-1.415-1.438c-2.23-2.269-2.23-5.933 0-8.202a5.7 5.7 0 0 1 8.106 0 5.876 5.876 0 0 1 .88 7.054c-.38.652-.573 1.02.05 1.593l3.19 3.23c.34.347.662.368 1.028-.098 4.109-5.025 3.535-12.443-1.298-16.76a11.838 11.838 0 0 0-16.594.779c-4.416 4.75-4.31 12.19.241 16.809l6.934 7.017 5.822 5.891-2.607 2.632a2.386 2.386 0 0 1-3.39 0L5.223 31.953c-6.988-7.139-6.962-18.65.06-25.756a17.888 17.888 0 0 1 25.451-.06z"/></g><g><path fill="#000a36" d="M53.87 15.465V10.34h4.342c.998 0 1.781.177 2.35.533.568.356.852 1.015.852 1.977.003.962-.277 1.638-.838 2.03-.562.39-1.349.585-2.36.585zm0 7.385v-4.979h4.578c1.834 0 3.217-.408 4.151-1.224.934-.815 1.401-2.11 1.401-3.881 0-1.743-.474-2.998-1.424-3.765-.95-.767-2.326-1.151-4.128-1.151H51v15z"/></g><g><path fill="#000a36" d="M74.824 10.34c.39-.003.777.043 1.155.135.334.08.65.227.929.43.263.198.473.46.608.763.154.36.228.749.217 1.14.012.404-.07.805-.237 1.172-.149.309-.368.578-.64.784a2.755 2.755 0 0 1-.918.45c-.356.1-.724.149-1.094.147h-5.159v-5.022zM82 22.85l-4.835-5.878c1.033-.238 1.829-.744 2.386-1.518.558-.773.837-1.683.837-2.73a6.845 6.845 0 0 0-.258-1.914 3.752 3.752 0 0 0-.878-1.547c-.415-.44-.966-.786-1.654-1.037-.688-.25-1.542-.376-2.562-.376H67v15h2.685v-5.23h4.982l4.067 5.23z"/></g><g><path fill="#000a36" d="M85 22.85v-15h11.78v2.469h-9.167v3.744h8.16v2.134h-8.16v4.121H97v2.532z"/></g><g><path fill="#000a36" d="M102.627 20.318v-9.981h4.159c1.816 0 3.195.426 4.137 1.277.943.85 1.414 2.12 1.414 3.806 0 .824-.138 1.542-.415 2.156a4.097 4.097 0 0 1-1.16 1.527 5.04 5.04 0 0 1-1.76.912c-.722.21-1.47.312-2.22.303zm4.319 2.532c1.21 0 2.314-.188 3.31-.565a7.5 7.5 0 0 0 2.543-1.559 6.882 6.882 0 0 0 1.625-2.363c.39-.949.586-1.971.576-3.002a9.133 9.133 0 0 0-.475-3.003 6.269 6.269 0 0 0-1.464-2.374c-.666-.669-1.505-1.192-2.518-1.569s-2.213-.565-3.6-.565H100v15z"/></g><g><path fill="#000a36" d="M119 22.85v-15h3v15z"/></g><g><path fill="#000a36" d="M141.921 20.313a5.019 5.019 0 0 1-1.034.986c-.452.326-.94.596-1.456.806a9.78 9.78 0 0 1-1.818.543 11.26 11.26 0 0 1-5.451-.301 8.021 8.021 0 0 1-2.692-1.46 6.838 6.838 0 0 1-1.807-2.356c-.442-.932-.663-2.002-.663-3.21a7.822 7.822 0 0 1 .563-3 6.397 6.397 0 0 1 1.677-2.367c.742-.664 1.666-1.18 2.771-1.55 1.105-.37 2.393-.554 3.865-.554.715-.004 1.428.063 2.129.202a9.832 9.832 0 0 1 1.767.523c.478.192.932.438 1.353.735.339.232.635.522.875.855l-1.646 2.014a4.399 4.399 0 0 0-1.878-1.41c-.783-.319-1.744-.478-2.882-.478-.95 0-1.79.12-2.52.362a5.248 5.248 0 0 0-1.847 1.027c-.497.436-.889.98-1.145 1.59-.267.652-.4 1.35-.391 2.054-.011.724.133 1.441.422 2.104a4.49 4.49 0 0 0 1.184 1.59c.539.453 1.16.795 1.83 1.007a7.497 7.497 0 0 0 2.37.353c1.058 0 1.995-.151 2.812-.454a4.15 4.15 0 0 0 1.967-1.48z"/></g><g><path fill="#000a36" d="M149.643 22.85V10.337H144V7.85h14v2.487h-5.637V22.85z"/></g><g><path fill="#000a36" d="M161 22.85v-15h3v15z"/></g><g><path fill="#000a36" d="M181.819 17.579a4.408 4.408 0 0 1-1.206 1.545 5.415 5.415 0 0 1-1.84.963 7.827 7.827 0 0 1-2.33.33 7.51 7.51 0 0 1-2.262-.33 5.527 5.527 0 0 1-1.835-.963 4.547 4.547 0 0 1-1.236-1.545c-.302-.609-.452-1.308-.452-2.098a5.111 5.111 0 0 1 .431-2.137 4.686 4.686 0 0 1 1.207-1.625 5.406 5.406 0 0 1 1.839-1.036 7.154 7.154 0 0 1 2.31-.362 7.228 7.228 0 0 1 2.331.362c.675.222 1.3.574 1.84 1.036a4.694 4.694 0 0 1 1.205 1.625c.296.673.444 1.402.433 2.137 0 .79-.145 1.489-.435 2.098zm2.547-5.175a7.182 7.182 0 0 0-1.772-2.412 8.144 8.144 0 0 0-2.705-1.578 10.12 10.12 0 0 0-3.44-.563c-1.275 0-2.428.187-3.46.563a7.948 7.948 0 0 0-2.665 1.578 6.958 6.958 0 0 0-1.72 2.412 7.704 7.704 0 0 0-.603 3.09c0 1.127.218 2.143.653 3.046a6.88 6.88 0 0 0 1.79 2.31 8.225 8.225 0 0 0 2.672 1.477c1.074.356 2.199.532 3.33.522a10.837 10.837 0 0 0 3.44-.522 8.182 8.182 0 0 0 2.705-1.478 6.677 6.677 0 0 0 1.77-2.311c.426-.905.638-1.92.638-3.046a7.39 7.39 0 0 0-.633-3.088z"/></g><g><path fill="#000a36" d="M200.304 22.85l-9.56-10.544V22.85H188v-15h2.83l9.452 10.943V7.85H203v15z"/></g><g><path fill="#000a36" d="M73 36.848V28.85h6.875v1.313H74.52v2.002h4.763v1.138H74.52V35.5H80v1.35z"/></g><g><path fill="#000a36" d="M92.075 36.85L89 33.624l-3.079 3.224H84l3.938-4.105-3.867-3.894H86.1l2.96 3.046 2.924-3.046h1.92l-3.842 3.939L94 36.85z"/></g><g><path fill="#000a36" d="M100.545 32.926v-2.744h2.336c.535.002.956.097 1.262.286.306.188.458.54.458 1.058 0 .516-.152.878-.453 1.085-.3.207-.723.31-1.267.31zm0 3.923v-2.655h2.465c.985-.001 1.73-.219 2.234-.654.504-.434.756-1.124.756-2.069 0-.93-.256-1.599-.768-2.008-.51-.409-1.252-.613-2.222-.613H99v8z"/></g><g><path fill="#000a36" d="M112 36.85v-8h1.356v6.65H118v1.35z"/></g><g><path fill="#000a36" d="M131.738 34.162c-.169.356-.418.67-.728.918-.328.26-.705.455-1.11.573-.456.135-.93.202-1.406.197a4.597 4.597 0 0 1-1.365-.197 3.355 3.355 0 0 1-1.11-.573 2.714 2.714 0 0 1-.746-.918 2.732 2.732 0 0 1-.272-1.246c-.007-.437.082-.87.26-1.27.169-.371.417-.7.728-.967a3.288 3.288 0 0 1 1.11-.614 4.67 4.67 0 0 1 2.801 0c.408.131.785.34 1.11.614.311.266.56.596.728.966.179.4.268.834.261 1.271.009.43-.08.855-.26 1.246zM133 32.925a3.957 3.957 0 0 0-.336-1.646 3.818 3.818 0 0 0-.937-1.287 4.307 4.307 0 0 0-1.432-.841 5.698 5.698 0 0 0-3.653 0c-.52.184-1 .47-1.411.841a3.7 3.7 0 0 0-.911 1.287 4.138 4.138 0 0 0-.32 1.646 3.644 3.644 0 0 0 1.294 2.858c.42.35.9.617 1.417.788.569.19 1.164.284 1.763.279a5.701 5.701 0 0 0 1.82-.279 4.316 4.316 0 0 0 1.433-.788c.399-.336.719-.757.937-1.233.23-.51.344-1.065.336-1.625z"/><path fill="none" stroke="#000a36" stroke-miterlimit="20" stroke-width=".5" d="M131.738 34.162c-.169.356-.418.67-.728.918-.328.26-.705.455-1.11.573-.456.135-.93.202-1.406.197a4.597 4.597 0 0 1-1.365-.197 3.355 3.355 0 0 1-1.11-.573 2.714 2.714 0 0 1-.746-.918 2.732 2.732 0 0 1-.272-1.246c-.007-.437.082-.87.26-1.27.169-.371.417-.7.728-.967a3.288 3.288 0 0 1 1.11-.614 4.67 4.67 0 0 1 2.801 0c.408.131.785.34 1.11.614.311.266.56.596.728.966.179.4.268.834.261 1.271.009.43-.08.855-.26 1.246zM133 32.925a3.957 3.957 0 0 0-.336-1.646 3.818 3.818 0 0 0-.937-1.287 4.307 4.307 0 0 0-1.432-.841 5.698 5.698 0 0 0-3.653 0c-.52.184-1 .47-1.411.841a3.7 3.7 0 0 0-.911 1.287 4.138 4.138 0 0 0-.32 1.646 3.644 3.644 0 0 0 1.294 2.858c.42.35.9.617 1.417.788.569.19 1.164.284 1.763.279a5.701 5.701 0 0 0 1.82-.279 4.316 4.316 0 0 0 1.433-.788c.399-.336.719-.757.937-1.233.23-.51.344-1.065.336-1.625z"/></g><g><path fill="#000a36" d="M142.694 30.175c.234-.001.467.023.694.073.202.043.391.122.558.232.159.105.284.245.366.407.092.191.136.399.13.608.007.215-.042.429-.142.624-.09.166-.221.31-.385.419a1.74 1.74 0 0 1-.551.24 2.698 2.698 0 0 1-.658.077h-3.098v-2.677zM147 36.85l-2.901-3.136c.62-.127 1.097-.396 1.432-.808.338-.424.515-.935.502-1.456.003-.346-.05-.69-.155-1.021a1.954 1.954 0 0 0-.527-.826 2.57 2.57 0 0 0-.991-.552c-.413-.134-.926-.201-1.538-.201H138v8h1.612v-2.79h2.987l2.438 2.79z"/></g><g><path fill="#000a36" d="M153 36.848V28.85h6.871v1.313h-5.347v2.002h4.76v1.138h-4.76V35.5H160v1.35z"/></g><g><path fill="#000a36" d="M169.698 30.175c.234-.001.467.023.694.073.202.043.391.122.558.232.159.105.284.245.366.407.092.191.137.399.13.608.008.215-.041.429-.142.624-.09.166-.221.31-.385.419a1.74 1.74 0 0 1-.551.24 2.697 2.697 0 0 1-.657.077h-3.1v-2.677zM174 36.85l-2.9-3.136c.62-.127 1.096-.396 1.43-.808.34-.424.515-.935.503-1.456a3.276 3.276 0 0 0-.155-1.021c-.099-.31-.28-.593-.526-.826a2.574 2.574 0 0 0-.992-.552c-.414-.134-.926-.201-1.537-.201H165v8h1.612v-2.79h2.988l2.442 2.79z"/></g></g></g></svg>