<svg xmlns="http://www.w3.org/2000/svg" width="121" height="26" viewBox="0 0 121 26"><g><g><g><path fill="#000a36" d="M17.929 3.307c4.095 4.316 4.095 11.293 0 15.61l-1.446 1.516c-.734.77-1.332.628-1.877-.006L8.95 14.495v-.003l-.826-.869c-1.3-1.372-1.3-3.588 0-4.96a3.243 3.243 0 0 1 4.728 0c1.075 1.135 1.286 2.886.514 4.266-.222.394-.334.616.029.963l1.861 1.953c.198.21.386.222.6-.06 2.396-3.038 2.061-7.523-.757-10.133-2.82-2.61-7.104-2.402-9.68.47-2.577 2.873-2.515 7.372.14 10.164l4.045 4.243L13 24.091l-1.52 1.591c-.548.57-1.431.57-1.978 0l-6.455-6.766C-1.029 14.6-1.013 7.64 3.082 3.343 7.178-.953 13.814-.97 17.93 3.307z"/></g><g><path fill="#000a36" d="M31.766 9.68V6.603h2.672c.614 0 1.096.106 1.446.32.35.214.525.609.525 1.186.001.577-.17.983-.516 1.217-.346.235-.83.352-1.453.352zm0 4.43v-2.987h2.817c1.129 0 1.98-.245 2.555-.735C37.713 9.9 38 9.123 38 8.06c0-1.046-.292-1.8-.876-2.26-.585-.46-1.432-.69-2.54-.69H30v9z"/></g><g><path fill="#000a36" d="M44.698 6.604c.234-.002.467.026.694.082.2.048.39.136.558.258.158.12.284.277.366.46.092.216.136.45.13.686.007.243-.042.484-.143.705-.09.186-.22.348-.384.472a1.654 1.654 0 0 1-.552.271c-.214.06-.435.09-.657.088h-3.099V6.604zM49 14.11l-2.901-3.527c.62-.143 1.097-.446 1.432-.91.334-.465.502-1.01.502-1.638a4.107 4.107 0 0 0-.155-1.149c-.099-.348-.28-.666-.527-.928-.249-.264-.58-.472-.992-.622-.413-.15-.926-.226-1.537-.226H40v9h1.611v-3.138h2.99l2.44 3.138z"/></g><g><path fill="#000a36" d="M51 14.11v-9h6.871v1.481h-5.347v2.247h4.76v1.28h-4.76v2.473H58v1.519z"/></g><g><path fill="#000a36" d="M61.576 12.59V6.603h2.491c1.088 0 1.914.256 2.479.766.564.51.846 1.272.846 2.284 0 .494-.083.925-.248 1.294a2.458 2.458 0 0 1-.695.916 3.017 3.017 0 0 1-1.054.547c-.433.126-.88.187-1.33.182zm2.592 1.52c.726 0 1.388-.113 1.985-.34a4.5 4.5 0 0 0 1.526-.934 4.13 4.13 0 0 0 .976-1.418c.234-.57.351-1.183.345-1.802a5.48 5.48 0 0 0-.285-1.801 3.761 3.761 0 0 0-.878-1.425c-.4-.4-.903-.715-1.511-.94-.608-.227-1.328-.34-2.16-.34H60v9z"/></g><g><path fill="#000a36" d="M71 14.11v-9h2v9z"/></g><g><path fill="#000a36" d="M84.953 12.588a3.011 3.011 0 0 1-.62.591 4.18 4.18 0 0 1-.875.484 5.869 5.869 0 0 1-1.09.326 6.756 6.756 0 0 1-3.271-.181 4.813 4.813 0 0 1-1.615-.876 4.102 4.102 0 0 1-1.084-1.413c-.265-.56-.398-1.202-.398-1.927a4.693 4.693 0 0 1 .338-1.8 3.838 3.838 0 0 1 1.006-1.42c.445-.398 1-.708 1.663-.93.663-.221 1.436-.332 2.319-.332.428-.003.856.038 1.277.121a5.9 5.9 0 0 1 1.06.314c.287.115.56.263.812.441.203.14.38.313.525.513l-.988 1.208a2.64 2.64 0 0 0-1.127-.845c-.47-.192-1.046-.288-1.728-.288-.57 0-1.075.073-1.512.218a3.149 3.149 0 0 0-1.109.616 2.618 2.618 0 0 0-.687.954c-.16.39-.24.81-.235 1.233-.006.434.08.864.254 1.262.163.367.405.693.71.954.323.272.696.477 1.099.604.46.146.94.218 1.421.212.635 0 1.197-.091 1.687-.272a2.49 2.49 0 0 0 1.18-.888z"/></g><g><path fill="#000a36" d="M89.225 14.11V6.602H86V5.11h8v1.492h-3.221v7.508z"/></g><g><path fill="#000a36" d="M96 14.11v-9h2v9z"/></g><g><path fill="#000a36" d="M108.134 10.947c-.165.36-.408.676-.71.927a3.168 3.168 0 0 1-1.082.578 4.528 4.528 0 0 1-1.373.199c-.451.003-.9-.064-1.331-.199a3.234 3.234 0 0 1-1.08-.578 2.72 2.72 0 0 1-.728-.927 2.842 2.842 0 0 1-.267-1.258c-.006-.441.08-.879.254-1.282.165-.374.407-.707.71-.976a3.167 3.167 0 0 1 1.084-.621 4.14 4.14 0 0 1 1.36-.217c.466-.005.93.068 1.372.217.397.133.765.344 1.083.621.303.269.545.602.71.976.174.403.26.84.254 1.282 0 .473-.085.893-.256 1.258zm1.493-3.104a4.305 4.305 0 0 0-1.042-1.448 4.77 4.77 0 0 0-1.592-.947 5.847 5.847 0 0 0-2.023-.338c-.75 0-1.428.113-2.036.338a4.657 4.657 0 0 0-1.567.947c-.435.403-.78.897-1.012 1.448A4.703 4.703 0 0 0 100 9.696c0 .677.129 1.286.385 1.828.25.533.609 1.006 1.053 1.386.465.393.998.693 1.571.886.632.214 1.294.32 1.96.314a6.26 6.26 0 0 0 2.023-.314c.58-.19 1.12-.491 1.591-.887a3.998 3.998 0 0 0 1.042-1.386c.25-.543.375-1.153.375-1.828a4.51 4.51 0 0 0-.373-1.852z"/></g><g><path fill="#000a36" d="M119.382 14.11l-5.736-6.326v6.326H112v-9h1.698l5.671 6.566V5.11H121v9z"/></g><g><path fill="#000a36" d="M44 22.109V17.11h3.929v.82h-3.06v1.252h2.722v.711h-2.722v1.373H48v.844z"/></g><g><path fill="#000a36" d="M54.845 22.11L53 20.094l-1.847 2.016H50l2.363-2.566-2.32-2.434h1.217l1.776 1.904 1.754-1.904h1.153l-2.306 2.462L56 22.11z"/></g><g><path fill="#000a36" d="M59.883 19.651v-1.708h1.344c.308 0 .55.06.726.177.176.118.264.337.264.66-.001.321-.088.546-.261.675-.173.129-.416.193-.73.193zm0 2.459v-1.66h1.408c.564 0 .99-.137 1.277-.408.288-.272.432-.703.432-1.294 0-.58-.146-1-.439-1.255-.292-.255-.715-.383-1.27-.383H59v5z"/></g><g><path fill="#000a36" d="M67 22.11v-5h.904v4.156H71v.844z"/></g><g><path fill="#000a36" d="M78.29 20.43a1.614 1.614 0 0 1-.404.574 1.747 1.747 0 0 1-.615.358 2.367 2.367 0 0 1-.78.123 2.28 2.28 0 0 1-.756-.123 1.793 1.793 0 0 1-.615-.358 1.673 1.673 0 0 1-.413-.574 1.892 1.892 0 0 1-.151-.779 2.079 2.079 0 0 1 .145-.794c.093-.231.23-.438.402-.604.181-.171.39-.302.616-.384a2.308 2.308 0 0 1 1.552 0c.226.082.435.213.615.384.172.166.31.373.403.604.1.25.149.521.145.794.005.269-.045.535-.145.779zm.71-.773a2.741 2.741 0 0 0-.187-1.029 2.394 2.394 0 0 0-.52-.804 2.35 2.35 0 0 0-.796-.526 2.834 2.834 0 0 0-2.03 0 2.295 2.295 0 0 0-1.29 1.33A2.87 2.87 0 0 0 74 19.657c-.011.688.253 1.345.72 1.786.232.219.499.386.786.493.316.118.647.177.98.174.343.004.684-.055 1.011-.174.29-.106.56-.273.796-.493.221-.21.4-.473.52-.77A2.64 2.64 0 0 0 79 19.657z"/><path fill="none" stroke="#000a36" stroke-miterlimit="20" stroke-width=".5" d="M78.29 20.43a1.614 1.614 0 0 1-.404.574 1.747 1.747 0 0 1-.615.358 2.367 2.367 0 0 1-.78.123 2.28 2.28 0 0 1-.756-.123 1.793 1.793 0 0 1-.615-.358 1.673 1.673 0 0 1-.413-.574 1.892 1.892 0 0 1-.151-.779 2.079 2.079 0 0 1 .145-.794c.093-.231.23-.438.402-.604.181-.171.39-.302.616-.384a2.308 2.308 0 0 1 1.552 0c.226.082.435.213.615.384.172.166.31.373.403.604.1.25.149.521.145.794.005.269-.045.535-.145.779zm.71-.773a2.741 2.741 0 0 0-.187-1.029 2.394 2.394 0 0 0-.52-.804 2.35 2.35 0 0 0-.796-.526 2.834 2.834 0 0 0-2.03 0 2.295 2.295 0 0 0-1.29 1.33A2.87 2.87 0 0 0 74 19.657c-.011.688.253 1.345.72 1.786.232.219.499.386.786.493.316.118.647.177.98.174.343.004.684-.055 1.011-.174.29-.106.56-.273.796-.493.221-.21.4-.473.52-.77A2.64 2.64 0 0 0 79 19.657z"/></g><g><path fill="#000a36" d="M84.608 17.938c.13 0 .26.015.386.045a.866.866 0 0 1 .31.144.646.646 0 0 1 .203.253c.05.12.075.248.072.378a.869.869 0 0 1-.08.388.713.713 0 0 1-.213.26.918.918 0 0 1-.306.15 1.348 1.348 0 0 1-.365.047h-1.722V17.94zM87 22.11l-1.612-1.96c.345-.08.61-.248.796-.505.188-.265.286-.584.279-.91a2.267 2.267 0 0 0-.087-.638 1.249 1.249 0 0 0-.292-.516 1.393 1.393 0 0 0-.55-.345 2.514 2.514 0 0 0-.855-.126H82v5h.896v-1.744h1.66l1.353 1.744z"/></g><g><path fill="#000a36" d="M91 22.109V17.11h3.926v.82h-3.055v1.252h2.72v.711h-2.72v1.373H95v.844z"/></g><g><path fill="#000a36" d="M101.604 17.938c.13 0 .258.014.384.045a.857.857 0 0 1 .309.144.646.646 0 0 1 .202.253.89.89 0 0 1 .072.378.866.866 0 0 1-.079.388.713.713 0 0 1-.212.26.913.913 0 0 1-.306.15c-.118.032-.24.048-.363.047h-1.716V17.94zM104 22.11l-1.611-1.96c.344-.08.609-.248.795-.505.188-.265.286-.584.279-.91a2.285 2.285 0 0 0-.086-.638 1.254 1.254 0 0 0-.293-.516 1.395 1.395 0 0 0-.55-.345 2.516 2.516 0 0 0-.855-.126H99v5h.895v-1.744h1.66l1.357 1.744z"/></g></g></g></svg>