<svg xmlns="http://www.w3.org/2000/svg" width="18" height="13" viewBox="0 0 18 13"><g><g><path fill="#000a36" d="M17.32 1.54a7.406 7.406 0 0 1-2.003.518A3.334 3.334 0 0 0 16.852.244c-.674.376-1.42.65-2.216.795A3.59 3.59 0 0 0 12.09 0c-1.927 0-3.487 1.47-3.487 3.28 0 .258.029.508.09.749-2.9-.136-5.472-1.443-7.19-3.43a3.131 3.131 0 0 0-.472 1.649c0 1.137.616 2.143 1.552 2.732a3.572 3.572 0 0 1-1.581-.41v.04C1 6.203 2.204 7.527 3.8 7.828a3.722 3.722 0 0 1-.919.115c-.223 0-.443-.02-.655-.06.443 1.303 1.732 2.25 3.26 2.278a7.282 7.282 0 0 1-4.334 1.405c-.28 0-.558-.017-.832-.048A10.227 10.227 0 0 0 5.662 13c6.42 0 9.929-5 9.929-9.337a8.19 8.19 0 0 0-.011-.423 6.935 6.935 0 0 0 1.74-1.7z"/></g></g></svg>